<svg width="1037" height="1728" viewBox="0 0 1037 1728" fill="none" xmlns="http://www.w3.org/2000/svg">
<path fill-rule="evenodd" clip-rule="evenodd" d="M0.226074 691.036H345.582L345.582 345.681L0.226074 345.681L0.226074 691.036Z" fill="#F14321"/>
<path fill-rule="evenodd" clip-rule="evenodd" d="M345.579 345.692L690.935 691.048H345.579L345.579 345.692Z" fill="#F86410"/>
<path fill-rule="evenodd" clip-rule="evenodd" d="M0.226074 1036.42H345.582L345.582 691.063L0.226074 691.063L0.226074 1036.42Z" fill="#E92131"/>
<path fill-rule="evenodd" clip-rule="evenodd" d="M0.226074 1727.1H345.582L345.582 1381.75H0.226074L0.226074 1727.1Z" fill="#E20041"/>
<path fill-rule="evenodd" clip-rule="evenodd" d="M345.582 1036.42H690.938V691.063L345.582 691.063L345.582 1036.42Z" fill="#F14321"/>
<path fill-rule="evenodd" clip-rule="evenodd" d="M690.938 1036.42H1036.27V691.063L690.938 691.063L690.938 1036.42Z" fill="#F86410"/>
<path fill-rule="evenodd" clip-rule="evenodd" d="M690.938 345.681L1036.27 345.681V0.325195L690.938 0.325195L690.938 345.681Z" fill="#FF8500"/>
<path fill-rule="evenodd" clip-rule="evenodd" d="M345.579 1036.42H690.935V1381.75L345.579 1036.42Z" fill="#E92131"/>
<path fill-rule="evenodd" clip-rule="evenodd" d="M690.938 1381.75H1036.27V1036.42H690.938L690.938 1381.75Z" fill="#F14321"/>
</svg>
